<svg width="10" height="9" viewBox="0 0 10 9" fill="none" xmlns="http://www.w3.org/2000/svg">
<path d="M8.81085 1.73746C9.00611 1.5422 9.00611 1.22562 8.81085 1.03036C8.61559 0.835096 8.29901 0.835096 8.10375 1.03036L5.0004 4.1337L1.89709 1.03038C1.70183 0.835119 1.38524 0.835119 1.18998 1.03038C0.994718 1.22564 0.994719 1.54223 1.18998 1.73749L4.2933 4.8408L1.03268 8.10142C0.837415 8.29669 0.837415 8.61327 1.03268 8.80853C1.22794 9.00379 1.54452 9.00379 1.73978 8.80853L5.0004 5.54791L8.26105 8.80856C8.45631 9.00382 8.77289 9.00382 8.96815 8.80856C9.16342 8.61329 9.16342 8.29671 8.96815 8.10145L5.70751 4.8408L8.81085 1.73746Z" fill="white"/>
</svg>
