<svg width="14" height="12" viewBox="0 0 14 12" fill="none" xmlns="http://www.w3.org/2000/svg">
<path fill-rule="evenodd" clip-rule="evenodd" d="M5.00004 0.666672C6.2426 0.666672 7.28667 1.51652 7.5827 2.66667L13 2.66667C13.3682 2.66667 13.6667 2.96515 13.6667 3.33334C13.6667 3.70153 13.3682 4.00001 13 4.00001L7.5827 4.00001C7.28667 5.15016 6.2426 6 5.00004 6C3.75565 6 2.71034 5.14765 2.41608 3.99493C2.38898 3.99828 2.36138 4.00001 2.33337 4.00001L1.00004 4C0.63185 4 0.333374 3.70153 0.333374 3.33334C0.333374 2.96515 0.631851 2.66667 1.00004 2.66667L2.33337 2.66667C2.36138 2.66667 2.38898 2.6684 2.41608 2.67175C2.71034 1.51902 3.75565 0.666672 5.00004 0.666672ZM6.33337 3.33334C6.33337 4.06972 5.73642 4.66667 5.00004 4.66667C4.26366 4.66667 3.66671 4.06972 3.66671 3.33334C3.66671 2.59696 4.26366 2.00001 5.00004 2.00001C5.73642 2.00001 6.33337 2.59696 6.33337 3.33334Z" fill="#293553"/>
<path fill-rule="evenodd" clip-rule="evenodd" d="M11.584 9.32826C11.2897 10.481 10.2444 11.3333 9.00004 11.3333C7.75748 11.3333 6.71341 10.4835 6.41739 9.33334H1.00004C0.631851 9.33334 0.333374 9.03486 0.333374 8.66667C0.333374 8.29848 0.631851 8 1.00004 8H6.41739C6.71341 6.84985 7.75748 6 9.00004 6C10.2444 6 11.2897 6.85236 11.584 8.00509C11.6111 8.00173 11.6387 8 11.6667 8H13C13.3682 8 13.6667 8.29848 13.6667 8.66667C13.6667 9.03486 13.3682 9.33334 13 9.33334H11.6667C11.6387 9.33334 11.6111 9.33161 11.584 9.32826ZM10.3334 8.66667C10.3334 9.40305 9.73642 10 9.00004 10C8.26366 10 7.66671 9.40305 7.66671 8.66667C7.66671 7.93029 8.26366 7.33334 9.00004 7.33334C9.73642 7.33334 10.3334 7.93029 10.3334 8.66667Z" fill="#293553"/>
</svg>
