<svg width="9" height="9" viewBox="0 0 9 9" fill="none" xmlns="http://www.w3.org/2000/svg">
<path d="M0.961155 8.5C0.71671 8.5 0.507451 8.41296 0.333377 8.23889C0.159303 8.06482 0.0722656 7.85556 0.0722656 7.61111V1.38889C0.0722656 1.14444 0.159303 0.935185 0.333377 0.761111C0.507451 0.587037 0.71671 0.5 0.961155 0.5H4.07227V1.38889H0.961155V7.61111H7.18338V4.5H8.07227V7.61111C8.07227 7.85556 7.98523 8.06482 7.81115 8.23889C7.63708 8.41296 7.42782 8.5 7.18338 8.5H0.961155ZM3.05004 6.14444L2.42782 5.52222L6.56115 1.38889H4.96115V0.5H8.07227V3.61111H7.18338V2.01111L3.05004 6.14444Z" fill="white"/>
</svg>
