<svg width="9" height="12" viewBox="0 0 9 12" fill="none" xmlns="http://www.w3.org/2000/svg">
<path fill-rule="evenodd" clip-rule="evenodd" d="M2.59337 0.502472C1.76494 0.502472 1.09337 1.17404 1.09337 2.00247V2.0276C1.09337 2.60721 1.42729 3.13495 1.95107 3.38313L1.97375 3.39388C2.14835 3.47661 2.25965 3.65252 2.25965 3.84572V5.76109L0.978435 6.97526C0.679527 7.25852 0.510223 7.65222 0.510223 8.06402V8.73924V9.23924H1.01022H4.00906V11.5019H5.00906V9.23924H8.00795H8.50795V8.73924V8.06402C8.50795 7.65222 8.33864 7.25852 8.03973 6.97526L6.75851 5.76109V3.84572C6.75851 3.65252 6.86982 3.47661 7.04442 3.39388L7.0671 3.38313C7.59088 3.13495 7.9248 2.60721 7.9248 2.0276V2.00247C7.9248 1.17404 7.25323 0.502472 6.4248 0.502472H2.59337ZM2.09337 2.00247C2.09337 1.72633 2.31722 1.50247 2.59337 1.50247H6.4248C6.70094 1.50247 6.9248 1.72633 6.9248 2.00247V2.0276C6.9248 2.22081 6.81349 2.39672 6.6389 2.47945L6.61622 2.49019C6.09244 2.73838 5.75851 3.26612 5.75851 3.84572V5.97611V6.19113L5.91459 6.33903L7.35187 7.7011C7.45151 7.79552 7.50795 7.92676 7.50795 8.06402V8.23924H1.51022V8.06402C1.51022 7.92675 1.56666 7.79552 1.66629 7.7011L3.10358 6.33903L3.25965 6.19113V5.97611V3.84572C3.25965 3.26612 2.92573 2.73838 2.40195 2.49019L2.37927 2.47945C2.20467 2.39672 2.09337 2.22081 2.09337 2.0276V2.00247Z" fill="#293553"/>
</svg>
