<svg width="16" height="14" viewBox="0 0 16 14" fill="none" xmlns="http://www.w3.org/2000/svg">
<path d="M9.27928 1.95397C6.77727 1.28356 4.2211 2.51187 3.1565 4.74456C3.03765 4.99382 2.73924 5.09953 2.48998 4.98068C2.24072 4.86183 2.13501 4.56342 2.25386 4.31416C3.52469 1.64897 6.56767 0.19212 9.5381 0.988044C12.1012 1.67481 13.8724 3.84112 14.1609 6.31337L14.9862 5.49127C15.1819 5.29639 15.4984 5.297 15.6933 5.49264C15.8882 5.68828 15.8876 6.00487 15.692 6.19975L14.1634 7.72238C14.0012 7.88395 13.75 7.91471 13.5536 7.79707L11.7027 6.68835C11.4658 6.54645 11.3888 6.23937 11.5308 6.00248C11.6727 5.76559 11.9797 5.68859 12.2166 5.83049L13.1625 6.39708L13.1345 6.20657L13.1366 6.20625C12.8175 4.22603 11.3606 2.51167 9.27928 1.95397Z" fill="#293553"/>
<path d="M6.71972 11.8535C9.22173 12.5239 11.7779 11.2956 12.8425 9.06293C12.9613 8.81367 13.2598 8.70796 13.509 8.82681C13.7583 8.94566 13.864 9.24407 13.7451 9.49333C12.4743 12.1585 9.43133 13.6154 6.4609 12.8195C3.89783 12.1327 2.12661 9.96634 1.83807 7.49408L1.01278 8.31616C0.817137 8.51105 0.500555 8.51043 0.305673 8.31479C0.11079 8.11915 0.111405 7.80257 0.307046 7.60769L1.8356 6.08506C1.9978 5.92349 2.24901 5.89272 2.44541 6.01037L4.29626 7.11908C4.53315 7.26099 4.61015 7.56806 4.46824 7.80495C4.32634 8.04185 4.01926 8.11885 3.78237 7.97694L2.83654 7.41036L2.86453 7.60086L2.86237 7.60118C3.18148 9.58143 4.63833 11.2958 6.71972 11.8535Z" fill="#293553"/>
</svg>
