<svg width="18" height="18" viewBox="0 0 18 18" fill="none" xmlns="http://www.w3.org/2000/svg">
<path fill-rule="evenodd" clip-rule="evenodd" d="M13.4502 8.10486C13.4502 5.13491 11.0425 2.72729 8.0726 2.72729C5.10265 2.72729 2.69503 5.13491 2.69503 8.10486C2.69503 11.0748 5.10265 13.4824 8.0726 13.4824C11.0425 13.4824 13.4502 11.0748 13.4502 8.10486ZM8.0726 0.727295C12.1471 0.727295 15.4502 4.03034 15.4502 8.10486C15.4502 9.7815 14.8909 11.3275 13.9487 12.5665L16.9796 15.5974C17.3701 15.9879 17.3701 16.6211 16.9796 17.0116C16.589 17.4021 15.9559 17.4021 15.5654 17.0116L12.5345 13.9807C11.2955 14.9231 9.74935 15.4824 8.0726 15.4824C3.99808 15.4824 0.695032 12.1794 0.695032 8.10486C0.695032 4.03034 3.99808 0.727295 8.0726 0.727295Z" fill="#797E8B"/>
</svg>
