<svg width="12" height="12" viewBox="0 0 12 12" fill="none" xmlns="http://www.w3.org/2000/svg">
<path fill-rule="evenodd" clip-rule="evenodd" d="M5.2981 0C8.22416 0 10.5962 2.37207 10.5962 5.29817C10.5962 6.62255 10.1103 7.83343 9.30701 8.76225L11.8872 11.3425C12.0376 11.4929 12.0376 11.7368 11.8872 11.8872C11.7368 12.0376 11.4929 12.0376 11.3425 11.8872L8.7623 9.30698C7.83347 10.1104 6.62254 10.5963 5.2981 10.5963C2.37204 10.5963 0 8.22428 0 5.29817C0 2.37207 2.37204 0 5.2981 0ZM9.82586 5.29817C9.82586 2.79753 7.79871 0.770356 5.2981 0.770356C2.79749 0.770356 0.770345 2.79753 0.770345 5.29817C0.770345 7.79882 2.79749 9.82599 5.2981 9.82599C7.79871 9.82599 9.82586 7.79882 9.82586 5.29817Z" fill="#293553"/>
</svg>
